<svg width="26" height="34" viewBox="0 0 26 34" fill="none" xmlns="http://www.w3.org/2000/svg">
<path d="M12.9181 33.9474C10.5317 33.9474 8.40638 33.5373 6.54204 32.717C4.68834 31.886 3.2235 30.7461 2.14751 29.2972C1.08216 27.8377 0.533514 26.1545 0.501554 24.2475H7.46888C7.5115 25.0465 7.77251 25.7496 8.25191 26.3569C8.74197 26.9535 9.39182 27.4169 10.2015 27.7472C11.0111 28.0774 11.922 28.2425 12.9341 28.2425C13.9888 28.2425 14.9209 28.0561 15.7306 27.6832C16.5403 27.3104 17.1741 26.7937 17.6322 26.1332C18.0903 25.4727 18.3194 24.7109 18.3194 23.848C18.3194 22.9744 18.0744 22.2021 17.5843 21.5309C17.1049 20.8491 16.4124 20.3164 15.5069 19.9329C14.612 19.5494 13.5467 19.3576 12.3109 19.3576H9.25866V14.2759H12.3109C13.3549 14.2759 14.2764 14.0948 15.0754 13.7326C15.8851 13.3704 16.5136 12.8697 16.9611 12.2305C17.4085 11.5806 17.6322 10.8242 17.6322 9.96129C17.6322 9.14098 17.4351 8.42188 17.041 7.80398C16.6574 7.17543 16.1141 6.68537 15.411 6.33381C14.7185 5.98224 13.9089 5.80646 12.982 5.80646C12.0445 5.80646 11.1869 5.97692 10.4092 6.31783C9.63153 6.64808 9.0083 7.12216 8.53955 7.74006C8.0708 8.35795 7.82045 9.08239 7.78849 9.91335H1.15674C1.1887 8.0277 1.7267 6.36577 2.77073 4.92756C3.81476 3.48935 5.22101 2.36541 6.98948 1.55575C8.7686 0.735439 10.7768 0.325283 13.014 0.325283C15.2725 0.325283 17.2487 0.735439 18.9426 1.55575C20.6365 2.37606 21.9522 3.48402 22.8897 4.87961C23.8378 6.26456 24.3066 7.81996 24.2959 9.54581C24.3066 11.3782 23.7366 12.907 22.5861 14.1321C21.4462 15.3572 19.96 16.1349 18.1276 16.4652V16.7209C20.5353 17.0298 22.3677 17.8661 23.6248 19.2298C24.8925 20.5827 25.5211 22.2766 25.5104 24.3114C25.5211 26.1758 24.9831 27.8324 23.8964 29.2812C22.8204 30.7301 21.3343 31.87 19.438 32.701C17.5417 33.532 15.3684 33.9474 12.9181 33.9474Z" fill="#FF9849"/>
</svg>
