<svg width="27" height="36" viewBox="0 0 27 36" fill="none" xmlns="http://www.w3.org/2000/svg">
<path d="M1.21236 35.5V30.1818L13.6385 18.6761C14.6953 17.6534 15.5817 16.733 16.2976 15.9148C17.0249 15.0966 17.576 14.2955 17.951 13.5114C18.326 12.7159 18.5135 11.858 18.5135 10.9375C18.5135 9.91477 18.2805 9.03409 17.8146 8.29545C17.3487 7.54545 16.7124 6.97159 15.9055 6.57386C15.0987 6.16477 14.1839 5.96023 13.1612 5.96023C12.093 5.96023 11.1612 6.17614 10.3658 6.60795C9.57031 7.03977 8.95668 7.65909 8.52486 8.46591C8.09304 9.27273 7.87713 10.233 7.87713 11.3466H0.871449C0.871449 9.0625 1.38849 7.07955 2.42259 5.39773C3.45668 3.71591 4.90554 2.41477 6.76918 1.49432C8.63281 0.573862 10.7805 0.113635 13.2124 0.113635C15.7124 0.113635 17.8885 0.556817 19.7408 1.44318C21.6044 2.31818 23.0533 3.53409 24.0874 5.09091C25.1215 6.64773 25.6385 8.43182 25.6385 10.4432C25.6385 11.7614 25.3771 13.0625 24.8544 14.3466C24.343 15.6307 23.4283 17.0568 22.1101 18.625C20.7919 20.1818 18.9339 22.0511 16.5362 24.233L11.4396 29.2273V29.4659H26.0987V35.5H1.21236Z" fill="#FF9849"/>
</svg>
